<?xml version="1.0" standalone="no"?>
<!DOCTYPE svg PUBLIC "-//W3C//DTD SVG 20010904//EN"
 "http://www.w3.org/TR/2001/REC-SVG-20010904/DTD/svg10.dtd">
<svg version="1.0" xmlns="http://www.w3.org/2000/svg"
 width="700.000000pt" height="700.000000pt" viewBox="0 0 700.000000 700.000000"
 preserveAspectRatio="xMidYMid meet">
<metadata>
Created by potrace 1.14, written by Peter Selinger 2001-2017
</metadata>
<g transform="translate(0.000000,700.000000) scale(0.100000,-0.100000)"
fill="#000000" stroke="none">
<path d="M1075 6222 c-166 -16 -336 -139 -414 -297 -62 -126 -61 -99 -61
-1121 0 -630 4 -949 11 -989 13 -69 55 -168 96 -222 64 -87 139 -143 251 -188
l75 -31 1 -279 c1 -247 3 -284 19 -316 29 -59 78 -87 160 -94 91 -8 117 7 244
140 128 132 387 405 468 491 l50 54 1005 2 1005 3 65 24 c184 68 319 226 355
416 21 106 20 1874 -1 1972 -44 213 -211 382 -424 429 -32 7 -2836 13 -2905 6z"/>
<path d="M4848 4316 c0 -1 -2 -103 -3 -228 -3 -258 -8 -317 -36 -420 -88 -318
-373 -567 -738 -643 -162 -33 -172 -34 -889 -34 l-602 -1 3 -542 c3 -539 3
-543 26 -606 13 -35 35 -85 49 -110 39 -70 147 -174 220 -211 124 -62 91 -61
1167 -61 l980 0 63 -68 c35 -37 133 -139 217 -227 84 -88 167 -176 185 -195
94 -102 157 -163 184 -177 42 -22 150 -22 196 0 19 10 49 36 65 60 l30 42 1
283 c1 156 5 286 8 289 3 3 31 15 62 25 116 39 229 134 289 242 62 114 77 181
74 356 0 52 -1 102 0 110 2 97 0 224 -5 231 -3 5 -2 9 3 9 7 0 8 89 3 210 -1
19 -2 82 -1 140 0 58 0 114 0 125 0 11 0 67 0 125 0 58 0 112 0 120 0 8 0 80
0 160 0 80 0 152 0 160 0 33 0 229 -1 293 -1 134 -52 264 -142 363 -67 74
-132 117 -228 152 l-73 26 -552 1 c-304 1 -554 2 -555 1z"/>
</g>
</svg>
