<?xml version="1.0" standalone="no"?>
<!DOCTYPE svg PUBLIC "-//W3C//DTD SVG 20010904//EN"
 "http://www.w3.org/TR/2001/REC-SVG-20010904/DTD/svg10.dtd">
<svg version="1.0" xmlns="http://www.w3.org/2000/svg"
 width="800.000000pt" height="800.000000pt" viewBox="0 0 800.000000 800.000000"
 preserveAspectRatio="xMidYMid meet">
<metadata>
Created by potrace 1.14, written by Peter Selinger 2001-2017
</metadata>
<g transform="translate(0.000000,800.000000) scale(0.100000,-0.100000)"
fill="#000000" stroke="none">
<path d="M0 4000 l0 -4000 4000 0 4000 0 0 4000 0 4000 -4000 0 -4000 0 0
-4000z m4472 2489 c184 -38 345 -191 393 -374 23 -89 23 -1751 0 -1840 -48
-183 -194 -327 -376 -370 -55 -13 -201 -15 -1009 -15 l-944 0 -306 -304 c-334
-332 -333 -332 -441 -324 -66 5 -100 24 -136 78 -22 32 -23 40 -23 295 l0 263
-46 11 c-149 38 -284 161 -345 316 l-24 60 -3 880 c-2 611 1 895 8 932 29 136
138 279 261 341 129 64 39 61 1556 61 962 1 1398 -2 1435 -10z m1923 -1754
c94 -24 162 -62 235 -131 74 -70 121 -147 145 -239 22 -87 23 -1751 0 -1838
-46 -178 -190 -325 -357 -367 l-48 -12 0 -263 c0 -255 -1 -263 -22 -295 -39
-57 -71 -74 -147 -78 -54 -3 -76 0 -107 16 -22 12 -170 152 -334 316 l-295
296 -948 0 c-831 0 -957 2 -1010 16 -166 43 -299 162 -360 322 -21 55 -22 73
-25 560 l-3 502 638 0 c369 0 668 5 708 10 157 23 319 78 442 152 81 48 209
172 263 255 104 158 130 276 130 584 l0 209 518 0 c432 0 528 -3 577 -15z"/>
</g>
</svg>
